REM DIRINDEX 1\2,1\3
REM DIRNAME cjc039,folder01,folder02
TITLE ""
FILE "3381-3400.mp3" MP3
  TRACK 01 AUDIO
    TITLE "0:"
    INDEX 01 00:00:00
  TRACK 02 AUDIO
    TITLE "2:cjc039_5761"
    INDEX 01 00:00:23
  TRACK 03 AUDIO
    TITLE "0:"
    INDEX 01 00:01:46
  TRACK 04 AUDIO
    TITLE "3:cjc039_5762"
    INDEX 01 00:02:20
  TRACK 05 AUDIO
    TITLE "0:"
    INDEX 01 00:05:73
  TRACK 06 AUDIO
    TITLE "2:cjc039_5763"
    INDEX 01 00:07:52
  TRACK 07 AUDIO
    TITLE "0:"
    INDEX 01 00:09:08
  TRACK 08 AUDIO
    TITLE "3:cjc039_5764"
    INDEX 01 00:09:59
  TRACK 09 AUDIO
    TITLE "0:"
    INDEX 01 00:13:20
  TRACK 10 AUDIO
    TITLE "2:cjc039_5765"
    INDEX 01 00:14:70
  TRACK 11 AUDIO
    TITLE "0:"
    INDEX 01 00:16:04
  TRACK 12 AUDIO
    TITLE "3:cjc039_5766"
    INDEX 01 00:16:59
  TRACK 13 AUDIO
    TITLE "0:"
    INDEX 01 00:19:67
  TRACK 14 AUDIO
    TITLE "2:cjc039_5767"
    INDEX 01 00:21:45
  TRACK 15 AUDIO
    TITLE "0:"
    INDEX 01 00:22:52
  TRACK 16 AUDIO
    TITLE "3:cjc039_5768"
    INDEX 01 00:23:18
  TRACK 17 AUDIO
    TITLE "0:"
    INDEX 01 00:27:04
  TRACK 18 AUDIO
    TITLE "2:cjc039_5769"
    INDEX 01 00:28:53
  TRACK 19 AUDIO
    TITLE "0:"
    INDEX 01 00:29:58
  TRACK 20 AUDIO
    TITLE "3:cjc039_5770"
    INDEX 01 00:30:36
  TRACK 21 AUDIO
    TITLE "0:"
    INDEX 01 00:33:26
  TRACK 22 AUDIO
    TITLE "2:cjc039_5771"
    INDEX 01 00:35:02
  TRACK 23 AUDIO
    TITLE "0:"
    INDEX 01 00:36:17
  TRACK 24 AUDIO
    TITLE "3:cjc039_5772"
    INDEX 01 00:36:64
  TRACK 25 AUDIO
    TITLE "0:"
    INDEX 01 00:40:34
  TRACK 26 AUDIO
    TITLE "2:cjc039_5773"
    INDEX 01 00:42:10
  TRACK 27 AUDIO
    TITLE "0:"
    INDEX 01 00:43:31
  TRACK 28 AUDIO
    TITLE "3:cjc039_5774"
    INDEX 01 00:44:05
  TRACK 29 AUDIO
    TITLE "0:"
    INDEX 01 00:47:44
  TRACK 30 AUDIO
    TITLE "2:cjc039_5775"
    INDEX 01 00:49:21
  TRACK 31 AUDIO
    TITLE "0:"
    INDEX 01 00:50:58
  TRACK 32 AUDIO
    TITLE "3:cjc039_5776"
    INDEX 01 00:51:34
  TRACK 33 AUDIO
    TITLE "0:"
    INDEX 01 00:56:31
  TRACK 34 AUDIO
    TITLE "2:cjc039_5777"
    INDEX 01 00:58:09
  TRACK 35 AUDIO
    TITLE "0:"
    INDEX 01 00:59:22
  TRACK 36 AUDIO
    TITLE "3:cjc039_5778"
    INDEX 01 01:00:02
  TRACK 37 AUDIO
    TITLE "0:"
    INDEX 01 01:03:61
  TRACK 38 AUDIO
    TITLE "2:cjc039_5779"
    INDEX 01 01:05:38
  TRACK 39 AUDIO
    TITLE "0:"
    INDEX 01 01:06:61
  TRACK 40 AUDIO
    TITLE "3:cjc039_5780"
    INDEX 01 01:07:39
  TRACK 41 AUDIO
    TITLE "0:"
    INDEX 01 01:11:51
  TRACK 42 AUDIO
    TITLE "2:cjc039_5781"
    INDEX 01 01:13:28
  TRACK 43 AUDIO
    TITLE "0:"
    INDEX 01 01:14:25
  TRACK 44 AUDIO
    TITLE "3:cjc039_5782"
    INDEX 01 01:15:09
  TRACK 45 AUDIO
    TITLE "0:"
    INDEX 01 01:17:41
  TRACK 46 AUDIO
    TITLE "2:cjc039_5783"
    INDEX 01 01:19:23
  TRACK 47 AUDIO
    TITLE "0:"
    INDEX 01 01:20:53
  TRACK 48 AUDIO
    TITLE "3:cjc039_5784"
    INDEX 01 01:21:33
  TRACK 49 AUDIO
    TITLE "0:"
    INDEX 01 01:25:55
  TRACK 50 AUDIO
    TITLE "2:cjc039_5785"
    INDEX 01 01:27:32
  TRACK 51 AUDIO
    TITLE "0:"
    INDEX 01 01:28:43
  TRACK 52 AUDIO
    TITLE "3:cjc039_5786"
    INDEX 01 01:29:23
  TRACK 53 AUDIO
    TITLE "0:"
    INDEX 01 01:32:02
  TRACK 54 AUDIO
    TITLE "2:cjc039_5787"
    INDEX 01 01:33:52
  TRACK 55 AUDIO
    TITLE "0:"
    INDEX 01 01:35:16
  TRACK 56 AUDIO
    TITLE "3:cjc039_5788"
    INDEX 01 01:35:61
  TRACK 57 AUDIO
    TITLE "0:"
    INDEX 01 01:40:13
  TRACK 58 AUDIO
    TITLE "2:cjc039_5789"
    INDEX 01 01:41:63
  TRACK 59 AUDIO
    TITLE "0:"
    INDEX 01 01:42:67
  TRACK 60 AUDIO
    TITLE "3:cjc039_5790"
    INDEX 01 01:43:43
  TRACK 61 AUDIO
    TITLE "0:"
    INDEX 01 01:45:55
  TRACK 62 AUDIO
    TITLE "2:cjc039_5791"
    INDEX 01 01:47:31
  TRACK 63 AUDIO
    TITLE "0:"
    INDEX 01 01:48:58
  TRACK 64 AUDIO
    TITLE "3:cjc039_5792"
    INDEX 01 01:49:32
  TRACK 65 AUDIO
    TITLE "0:"
    INDEX 01 01:52:38
  TRACK 66 AUDIO
    TITLE "2:cjc039_5793"
    INDEX 01 01:54:09
  TRACK 67 AUDIO
    TITLE "0:"
    INDEX 01 01:55:15
  TRACK 68 AUDIO
    TITLE "3:cjc039_5794"
    INDEX 01 01:55:67
  TRACK 69 AUDIO
    TITLE "0:"
    INDEX 01 01:58:58
  TRACK 70 AUDIO
    TITLE "2:cjc039_5795"
    INDEX 01 02:00:33
  TRACK 71 AUDIO
    TITLE "0:"
    INDEX 01 02:02:26
  TRACK 72 AUDIO
    TITLE "3:cjc039_5796"
    INDEX 01 02:02:69
  TRACK 73 AUDIO
    TITLE "0:"
    INDEX 01 02:06:59
  TRACK 74 AUDIO
    TITLE "2:cjc039_5797"
    INDEX 01 02:08:35
  TRACK 75 AUDIO
    TITLE "0:"
    INDEX 01 02:09:32
  TRACK 76 AUDIO
    TITLE "3:cjc039_5798"
    INDEX 01 02:10:14
  TRACK 77 AUDIO
    TITLE "0:"
    INDEX 01 02:12:52
  TRACK 78 AUDIO
    TITLE "2:cjc039_5799"
    INDEX 01 02:14:30
  TRACK 79 AUDIO
    TITLE "0:"
    INDEX 01 02:16:19
  TRACK 80 AUDIO
    TITLE "3:cjc039_5800"
    INDEX 01 02:16:70
  TRACK 81 AUDIO
    TITLE "0:"
    INDEX 01 02:21:33
